<!--
Font Awesome Free 5.2.0 by @fontawesome - https://fontawesome.com
License - https://fontawesome.com/license (Icons: CC BY 4.0, Fonts: SIL OFL 1.1, Code: MIT License)
-->

<svg xmlns="http://www.w3.org/2000/svg" viewBox="0 0 640 442">
  <path d="m257.98152,235.31375l-194.343,194.343c-9.373,9.373 -24.569,9.373 -33.941,0l-22.668,-22.667c-9.357,-9.357 -9.375,-24.522 -0.04,-33.901l154.022,-154.746l-154.021,-154.745c-9.335,-9.379 -9.317,-24.544 0.04,-33.901l22.667,-22.667c9.373,-9.373 24.569,-9.373 33.941,0l194.343,194.343c9.373,9.372 9.373,24.568 0,33.941zm382.019,183.029l0,-32c0,-13.255 -10.745,-24 -24,-24l-304,0c-13.255,0 -24,10.745 -24,24l0,32c0,13.255 10.745,24 24,24l304,0c13.255,0 24,-10.745 24,-24z"/>
</svg>
